
<svg version="1.1" xmlns="http://www.w3.org/2000/svg" xmlns:xlink="http://www.w3.org/1999/xlink" x="0px" y="0px" width="100%"
	 height="100%" class="statistic" viewBox="0 0 960 560" style="enable-background:new 0 0 960 560;" xml:space="preserve">
<style type="text/css">
<![CDATA[
	.st0{display:inline;opacity:0.3;fill:#29ABE2;}
	.st1{font-size:11.2941;}
	.st2{opacity:0.5;fill:#FFFFFF;}
	.st3{font-family:'MyriadPro-Regular';}
	.st4{fill:#29ABE2;}
	.st5{display:none;}
]]>
.statistic {
	
}

#layer_3 {
	height: 100%;
}
.statistic .st4 {
	
}
.statistic:hover .st41 {
	height:100%;
	
	-webkit-transform: translate(0px,-200px);
	
}
</style>
<g id="Layer_1">
	<rect x="-1" y="1" class="st2" width="962" height="560"/>
</g>
<g id="Layer_2" class="st5">
	<polygon class="st0" points="378,360 486,315 540,261 666,234 756,252 864,216 882,243 960,273 961,561 3,560 153,423 	"/>
</g>
<g id="Layer_3">
	<text transform="matrix(1.0625 0 0 1 144 405.5879)" class="st3 st1">10</text>
	<text transform="matrix(1.0625 0 0 1 252 380.1768)" class="st3 st1">20</text>
	<text transform="matrix(1.0625 0 0 1 360 337.8242)" class="st3 st1">60</text>
	<text transform="matrix(1.0625 0 0 1 459 306)" class="st3 st1">60</text>
	<text transform="matrix(1.0625 0 0 1 558 234)" class="st3 st1">60</text>
	<text transform="matrix(1.0625 0 0 1 666 225)" class="st3 st1">60</text>
	<text transform="matrix(1.0625 0 0 1 765 225)" class="st3 st1">60</text>
	<text transform="matrix(1.0625 0 0 1 864 207)" class="st3 st1">60</text>
	<rect x="846" y="216" class="st4" width="54" height="342"/>
	<rect x="744" y="238" class="st4" width="54" height="324"/>
	<rect x="642" y="233" class="st4" width="54" height="326"/>
	<rect x="540" y="246" class="st4 st41" width="54" height="315"/>
	<rect x="438" y="313" class="st4" width="54" height="245"/>
	<rect x="336" y="353" class="st4" width="54" height="207"/>
	<rect x="236" y="387" class="st4" width="50" height="173"/>
	<rect x="132" y="415" class="st4" width="54" height="144"/>
</g>

</svg>
